<svg width="152" height="167" viewBox="0 0 152 167" fill="none" xmlns="http://www.w3.org/2000/svg">
<g clip-path="url(#clip0_9_39)">
<path d="M14.6172 140.683L13.2785 134.9C10.905 133.798 8.47659 132.843 6.00492 132.041L5.83595 134.729L5.15069 131.768C2.08537 130.808 6.05723e-07 130.385 6.05723e-07 130.385C6.05723e-07 130.385 2.81614 142.119 8.72474 151.089L15.6088 152.413L10.2608 153.258C11.004 154.238 11.8027 155.165 12.6522 156.035C21.2466 164.774 30.8192 168.783 34.0331 164.99C37.247 161.197 32.8852 151.039 24.2909 142.301C21.6266 139.592 18.2796 137.418 14.9292 135.706L14.6172 140.683Z" fill="#F2F2F2"/>
<path d="M27.3482 134.401L28.9314 128.692C27.4196 126.405 25.7913 124.213 24.0542 122.127L22.6412 124.332L23.4518 121.409C21.2803 118.853 19.6944 117.31 19.6944 117.31C19.6944 117.31 16.5691 128.949 17.3936 139.974L22.6616 145.005L17.684 142.7C17.8581 143.96 18.1044 145.206 18.4215 146.432C21.6551 158.779 27.9578 167.631 32.4987 166.204C37.0396 164.777 38.0996 153.611 34.8659 141.264C33.8635 137.437 32.0241 133.681 29.9636 130.319L27.3482 134.401Z" fill="#F2F2F2"/>
<path d="M106.065 39.5624H105.23V14.5038C105.23 12.5991 104.887 10.7131 104.222 8.95344C103.556 7.19376 102.581 5.59487 101.352 4.24807C100.122 2.90126 98.6625 1.83292 97.0561 1.10404C95.4497 0.375151 93.7279 0 91.9892 0H43.5215C40.0099 0 36.6421 1.52808 34.159 4.24807C31.6759 6.96806 30.2809 10.6572 30.2809 14.5038V151.98C30.2809 153.884 30.6234 155.77 31.2888 157.53C31.9542 159.29 32.9295 160.889 34.159 162.235C35.3885 163.582 36.8481 164.65 38.4545 165.379C40.061 166.108 41.7827 166.483 43.5215 166.483H91.9892C95.5008 166.483 98.8685 164.955 101.352 162.235C103.835 159.515 105.23 155.826 105.23 151.98V57.3996H106.065L106.065 39.5624Z" fill="#E6E6E6"/>
<path d="M92.5234 3.77197H86.1973C86.4883 4.55337 86.5993 5.40116 86.5207 6.24065C86.442 7.08014 86.1761 7.88556 85.7464 8.58595C85.3166 9.28634 84.7362 9.86021 84.0563 10.257C83.3764 10.6538 82.6178 10.8613 81.8474 10.8613H54.0808C53.3104 10.8612 52.5519 10.6536 51.872 10.2568C51.1922 9.86002 50.6118 9.28615 50.1821 8.58576C49.7524 7.88538 49.4865 7.07999 49.4079 6.24054C49.3293 5.40108 49.4403 4.55333 49.7313 3.77197H43.8223C41.1998 3.77197 38.6848 4.91312 36.8305 6.94439C34.9761 8.97565 33.9343 11.7306 33.9343 14.6033V151.879C33.9343 154.752 34.9761 157.507 36.8305 159.538C38.6848 161.57 41.1998 162.711 43.8223 162.711H92.5234C95.1459 162.711 97.6609 161.57 99.5153 159.538C101.37 157.507 102.411 154.752 102.411 151.879V14.6031C102.411 11.7305 101.37 8.97552 99.5152 6.94431C97.6608 4.91309 95.1458 3.77197 92.5234 3.77197Z" fill="white"/>
<path d="M61.967 58.4558C61.9669 57.4963 62.1975 56.5536 62.6356 55.7227C63.0737 54.8918 63.7039 54.202 64.4628 53.7226C63.7043 53.2428 62.8439 52.9901 61.968 52.99C61.0921 52.9899 60.2316 53.2424 59.473 53.722C58.7144 54.2017 58.0845 54.8917 57.6465 55.7226C57.2085 56.5535 56.9779 57.496 56.9779 58.4555C56.9779 59.415 57.2085 60.3575 57.6465 61.1884C58.0845 62.0193 58.7144 62.7093 59.473 63.189C60.2316 63.6686 61.0921 63.9211 61.968 63.921C62.8439 63.9209 63.7043 63.6682 64.4628 63.1883C63.704 62.7091 63.0738 62.0194 62.6357 61.1886C62.1975 60.3578 61.9669 59.4153 61.967 58.4558Z" fill="#CCCCCC"/>
<path d="M68.2395 58.4558C68.2393 57.4963 68.4699 56.5536 68.908 55.7227C69.3461 54.8918 69.9764 54.2019 70.7352 53.7226C69.9768 53.2428 69.1163 52.9901 68.2404 52.99C67.3645 52.9899 66.504 53.2424 65.7455 53.722C64.9869 54.2017 64.3569 54.8917 63.9189 55.7226C63.481 56.5535 63.2504 57.496 63.2504 58.4555C63.2504 59.415 63.481 60.3575 63.9189 61.1884C64.3569 62.0193 64.9869 62.7093 65.7455 63.189C66.504 63.6686 67.3645 63.9211 68.2404 63.921C69.1163 63.9209 69.9768 63.6682 70.7352 63.1883C69.9764 62.7091 69.3462 62.0194 68.9081 61.1886C68.47 60.3578 68.2394 59.4153 68.2395 58.4558Z" fill="#CCCCCC"/>
<path d="M74.3695 63.9211C77.1251 63.9211 79.359 61.4741 79.359 58.4556C79.359 55.4371 77.1251 52.9901 74.3695 52.9901C71.6139 52.9901 69.38 55.4371 69.38 58.4556C69.38 61.4741 71.6139 63.9211 74.3695 63.9211Z" fill="white"/>
<path d="M82.7082 75.5265H53.6284C53.3515 75.5262 53.0861 75.4055 52.8904 75.1911C52.6946 74.9767 52.5845 74.6859 52.5842 74.3827V42.5285C52.5845 42.2253 52.6946 41.9345 52.8904 41.7201C53.0861 41.5057 53.3515 41.385 53.6284 41.3847H82.7082C82.985 41.385 83.2504 41.5057 83.4462 41.7201C83.6419 41.9345 83.752 42.2253 83.7524 42.5285V74.3827C83.752 74.6859 83.6419 74.9767 83.4462 75.1911C83.2504 75.4055 82.985 75.5262 82.7082 75.5265ZM53.6284 41.8425C53.4623 41.8427 53.303 41.915 53.1856 42.0437C53.0681 42.1723 53.0021 42.3468 53.0019 42.5287V74.3829C53.0021 74.5648 53.0681 74.7393 53.1856 74.8679C53.303 74.9966 53.4623 75.069 53.6284 75.0691H82.7082C82.8743 75.069 83.0335 74.9966 83.151 74.8679C83.2684 74.7393 83.3345 74.5648 83.3346 74.3829V42.5287C83.3345 42.3468 83.2684 42.1723 83.151 42.0437C83.0335 41.915 82.8743 41.8427 82.7082 41.8425H53.6284Z" fill="#CCCCCC"/>
<path d="M89.2012 99.9442H44.6016V100.402H89.2012V99.9442Z" fill="#CCCCCC"/>
<path d="M46.0101 97.0874C46.788 97.0874 47.4186 96.3966 47.4186 95.5445C47.4186 94.6924 46.788 94.0017 46.0101 94.0017C45.2322 94.0017 44.6016 94.6924 44.6016 95.5445C44.6016 96.3966 45.2322 97.0874 46.0101 97.0874Z" fill="white"/>
<path d="M89.2012 115.372H44.6016V115.829H89.2012V115.372Z" fill="#CCCCCC"/>
<path d="M46.0101 112.515C46.788 112.515 47.4186 111.825 47.4186 110.972C47.4186 110.12 46.788 109.43 46.0101 109.43C45.2322 109.43 44.6016 110.12 44.6016 110.972C44.6016 111.825 45.2322 112.515 46.0101 112.515Z" fill="white"/>
<path d="M88.385 132.94H74.2903C74.0469 132.94 73.8134 132.834 73.6413 132.645C73.4691 132.457 73.3723 132.201 73.372 131.934V126.523C73.3723 126.256 73.4691 126.001 73.6413 125.812C73.8134 125.623 74.0469 125.517 74.2903 125.517H88.385C88.6285 125.517 88.8619 125.623 89.0341 125.812C89.2062 126.001 89.3031 126.256 89.3033 126.523V131.934C89.3031 132.201 89.2062 132.457 89.0341 132.645C88.8619 132.834 88.6285 132.94 88.385 132.94Z" fill="white"/>
<path d="M50.6045 97.0874C51.3824 97.0874 52.013 96.3966 52.013 95.5445C52.013 94.6924 51.3824 94.0017 50.6045 94.0017C49.8266 94.0017 49.196 94.6924 49.196 95.5445C49.196 96.3966 49.8266 97.0874 50.6045 97.0874Z" fill="white"/>
<path d="M55.1989 97.0874C55.9768 97.0874 56.6074 96.3966 56.6074 95.5445C56.6074 94.6924 55.9768 94.0017 55.1989 94.0017C54.421 94.0017 53.7904 94.6924 53.7904 95.5445C53.7904 96.3966 54.421 97.0874 55.1989 97.0874Z" fill="white"/>
<path d="M50.6045 112.515C51.3824 112.515 52.013 111.825 52.013 110.972C52.013 110.12 51.3824 109.43 50.6045 109.43C49.8266 109.43 49.196 110.12 49.196 110.972C49.196 111.825 49.8266 112.515 50.6045 112.515Z" fill="white"/>
<path d="M55.1989 112.515C55.9768 112.515 56.6074 111.825 56.6074 110.972C56.6074 110.12 55.9768 109.43 55.1989 109.43C54.421 109.43 53.7904 110.12 53.7904 110.972C53.7904 111.825 54.421 112.515 55.1989 112.515Z" fill="white"/>
<path d="M151.432 167H4.91397C4.60032 167 4.34625 166.878 4.34625 166.728C4.34625 166.578 4.60032 166.455 4.91397 166.455H151.432C151.746 166.455 152 166.577 152 166.728C152 166.878 151.746 167 151.432 167Z" fill="#3F3D56"/>
<path d="M115.233 109.413C115.333 109.463 115.429 109.522 115.521 109.589L124.674 105.31L125 102.669L128.657 102.644L128.441 108.702L116.361 112.201C116.335 112.293 116.305 112.384 116.269 112.472C116.095 112.88 115.814 113.222 115.462 113.456C115.11 113.69 114.703 113.805 114.292 113.787C113.88 113.768 113.483 113.617 113.15 113.352C112.817 113.087 112.563 112.72 112.42 112.297C112.277 111.874 112.251 111.415 112.345 110.976C112.44 110.537 112.65 110.138 112.951 109.83C113.251 109.522 113.628 109.318 114.034 109.244C114.44 109.17 114.857 109.229 115.233 109.413Z" fill="#FFB8B8"/>
<path d="M129.988 164.305H127.486L126.296 153.734L129.988 153.735L129.988 164.305Z" fill="#FFB8B8"/>
<path d="M125.699 163.522H130.524V166.85H122.661C122.661 165.967 122.981 165.121 123.55 164.497C124.12 163.873 124.893 163.522 125.699 163.522Z" fill="#2F2E41"/>
<path d="M139.718 163.531L137.228 163.799L135.097 153.408L138.772 153.011L139.718 163.531Z" fill="#FFB8B8"/>
<path d="M135.379 163.212L140.181 162.694L140.479 166.006L132.654 166.85C132.615 166.415 132.654 165.976 132.77 165.558C132.886 165.14 133.076 164.75 133.329 164.413C133.582 164.075 133.893 163.795 134.245 163.589C134.597 163.383 134.982 163.255 135.379 163.212Z" fill="#2F2E41"/>
<path d="M130.684 91.4571C133.452 91.4571 135.696 88.999 135.696 85.9668C135.696 82.9346 133.452 80.4765 130.684 80.4765C127.916 80.4765 125.672 82.9346 125.672 85.9668C125.672 88.999 127.916 91.4571 130.684 91.4571Z" fill="#FFB8B8"/>
<path d="M126.927 162.167C126.712 162.168 126.503 162.085 126.338 161.934C126.174 161.783 126.063 161.573 126.026 161.341C124.731 153.467 120.498 127.72 120.397 127.006C120.394 126.99 120.393 126.973 120.393 126.957V125.037C120.393 124.967 120.413 124.899 120.45 124.842L121.01 123.984C121.036 123.943 121.071 123.909 121.111 123.885C121.152 123.861 121.197 123.847 121.243 123.845C124.431 123.681 134.872 123.201 135.376 123.891C135.882 124.585 135.704 126.687 135.662 127.101L135.664 127.145L140.355 160.004C140.392 160.266 140.333 160.533 140.191 160.748C140.049 160.963 139.836 161.108 139.597 161.151L136.667 161.68C136.449 161.718 136.226 161.67 136.037 161.543C135.849 161.416 135.709 161.219 135.642 160.989C134.736 157.817 131.697 147.148 130.644 143.019C130.638 142.993 130.623 142.97 130.602 142.956C130.581 142.941 130.556 142.935 130.532 142.938C130.507 142.942 130.485 142.956 130.469 142.976C130.453 142.997 130.444 143.023 130.444 143.05C130.497 146.986 130.624 157.027 130.668 160.494L130.673 160.868C130.675 161.121 130.59 161.365 130.435 161.553C130.28 161.741 130.067 161.858 129.837 161.882L127.012 162.163C126.984 162.166 126.955 162.167 126.927 162.167Z" fill="#010018"/>
<path d="M127.503 93.6159C126.628 94.1855 126.105 95.2322 125.805 96.2973C125.248 98.2692 124.914 100.308 124.808 102.368L124.49 108.538L120.561 124.894C123.967 128.051 125.931 127.334 130.516 124.752C135.1 122.17 135.624 125.612 135.624 125.612L136.541 111.695L137.85 96.4876C137.556 96.0998 137.224 95.7493 136.858 95.4427C135.648 94.4115 134.239 93.6947 132.739 93.3464C131.239 92.9981 129.686 93.0273 128.197 93.4319L127.503 93.6159Z" fill="white"/>
<path d="M126.227 112.717C126.332 112.76 126.435 112.813 126.533 112.874L135.583 107.912L135.733 105.224L139.466 104.942L139.666 111.07L127.572 115.451C127.473 115.915 127.248 116.335 126.926 116.655C126.604 116.975 126.201 117.181 125.77 117.244C125.338 117.307 124.9 117.224 124.513 117.008C124.125 116.791 123.807 116.451 123.601 116.031C123.394 115.612 123.31 115.134 123.357 114.66C123.405 114.187 123.583 113.74 123.869 113.38C124.154 113.021 124.532 112.764 124.953 112.646C125.374 112.527 125.819 112.552 126.227 112.717Z" fill="#FFB8B8"/>
<path d="M137.785 96.5572C140.012 97.4181 140.404 106.745 140.404 106.745C137.784 105.166 134.641 107.749 134.641 107.749C134.641 107.749 133.986 105.31 133.2 102.153C132.963 101.266 132.934 100.326 133.117 99.4232C133.301 98.5201 133.689 97.6825 134.248 96.9883C134.248 96.9883 135.558 95.6958 137.785 96.5572Z" fill="white"/>
<path d="M135.178 87.4187C134.554 86.8714 133.702 87.8662 133.702 87.8662L133.202 82.9409C133.202 82.9409 130.08 83.3506 128.081 82.8041C126.083 82.2577 125.771 84.7881 125.771 84.7881C125.668 83.7659 125.647 82.7359 125.708 81.7098C125.833 80.4784 127.457 79.2471 130.329 78.4261C133.202 77.6052 134.701 81.1625 134.701 81.1625C136.699 82.2568 135.803 87.966 135.178 87.4187Z" fill="#2F2E41"/>
</g>
<defs>
<clipPath id="clip0_9_39">
<rect width="152" height="167" fill="white"/>
</clipPath>
</defs>
</svg>
